<svg width="33" height="32" viewBox="0 0 33 32" fill="none" xmlns="http://www.w3.org/2000/svg">
<mask id="mask0_33115_996" style="mask-type:alpha" maskUnits="userSpaceOnUse" x="0" y="0" width="33" height="32">
<rect x="0.654297" width="32" height="32" fill="#D9D9D9"/>
</mask>
<g mask="url(#mask0_33115_996)">
<path d="M16.654 26.6666C15.9206 26.6666 15.2929 26.4055 14.7706 25.8833C14.2484 25.361 13.9873 24.7333 13.9873 23.9999C13.9873 23.2666 14.2484 22.6388 14.7706 22.1166C15.2929 21.5944 15.9206 21.3333 16.654 21.3333C17.3873 21.3333 18.0151 21.5944 18.5373 22.1166C19.0595 22.6388 19.3206 23.2666 19.3206 23.9999C19.3206 24.7333 19.0595 25.361 18.5373 25.8833C18.0151 26.4055 17.3873 26.6666 16.654 26.6666ZM16.654 18.6666C15.9206 18.6666 15.2929 18.4055 14.7706 17.8833C14.2484 17.361 13.9873 16.7333 13.9873 15.9999C13.9873 15.2666 14.2484 14.6388 14.7706 14.1166C15.2929 13.5944 15.9206 13.3333 16.654 13.3333C17.3873 13.3333 18.0151 13.5944 18.5373 14.1166C19.0595 14.6388 19.3206 15.2666 19.3206 15.9999C19.3206 16.7333 19.0595 17.361 18.5373 17.8833C18.0151 18.4055 17.3873 18.6666 16.654 18.6666ZM16.654 10.6666C15.9206 10.6666 15.2929 10.4055 14.7706 9.88325C14.2484 9.36103 13.9873 8.73325 13.9873 7.99992C13.9873 7.26659 14.2484 6.63881 14.7706 6.11659C15.2929 5.59436 15.9206 5.33325 16.654 5.33325C17.3873 5.33325 18.0151 5.59436 18.5373 6.11659C19.0595 6.63881 19.3206 7.26659 19.3206 7.99992C19.3206 8.73325 19.0595 9.36103 18.5373 9.88325C18.0151 10.4055 17.3873 10.6666 16.654 10.6666Z" fill="white"/>
</g>
</svg>
